<?xml version="1.0" encoding="utf-8"?>
<!-- Generator: Adobe Illustrator 15.1.0, SVG Export Plug-In . SVG Version: 6.00 Build 0)  -->
<!DOCTYPE svg PUBLIC "-//W3C//DTD SVG 1.1//EN" "http://www.w3.org/Graphics/SVG/1.1/DTD/svg11.dtd">
<svg version="1.1" id="圖層_1" xmlns="http://www.w3.org/2000/svg" xmlns:xlink="http://www.w3.org/1999/xlink" x="0px" y="0px"
	 width="542px" height="539.263px" viewBox="0 0 542 539.263" enable-background="new 0 0 542 539.263" xml:space="preserve">
<path fill="#FFA305" d="M542,438.5c-5,35-44,100.763-111,100.763H107C56,539.263,0,471.5,0,437.5v-330C0,55.5,71.75,0,95.75,0.501
	L440.625,0C484.625,0,542,59.5,542,106.5V438.5z"/>
<path fill="#FFFFFF" d="M353,404c-71.797,0-130-58.203-130-130s58.203-130,130-130c70.962,0,128.635,56.858,129.969,127.5
	c0.01-0.833,0.031-1.664,0.031-2.5c0-115.979-94.02-210-210-210S63,153.021,63,269c0,115.98,94.02,210,210,210
	c108.037,0,197.003-81.587,208.685-186.507C472.706,355.529,418.519,404,353,404z"/>
<g>
	<path fill="#FFFFFF" d="M429.829,170.479c-4.323-3.668-10.606-5.447-19.225-5.447c-12.461,0-23.908,3.705-34.032,11.01
		c-9.846,7.098-19.25,18.83-27.935,34.869c-2.866,5.256-4.885,7.26-5.9,8.009h-17.264c-7.128,0-12.906,5.777-12.906,12.905
		c0,5.91,3.996,10.841,9.418,12.367l-0.033,0.109h0.387c1.007,0.254,2.044,0.428,3.128,0.428h12.384l-21.495,84.168
		c-4.739,18.313-6.788,24.845-7.671,27.118c-0.95,2.44-2.147,4.645-3.644,6.665c-0.276-3.544-1.734-6.67-4.28-9.11
		c-2.804-2.682-6.647-4.035-11.418-4.035c-5.41,0-9.916,1.601-13.394,4.755c-3.561,3.241-5.447,7.359-5.447,11.924
		c0,3.391,1.119,8.358,6.462,12.723c4.037,3.268,9.762,4.854,17.505,4.854c11.242,0,21.397-3.003,30.176-8.927
		c8.622-5.817,16.184-14.788,22.466-26.646c6.175-11.624,12.294-29.672,18.692-55.169l12.229-48.317h19.737
		c7.128,0,12.905-5.777,12.905-12.905c0-7.127-5.776-12.904-12.905-12.904h-12.906c4.168-14.217,9.32-24.953,15.415-31.943
		c1.501-1.772,3.45-3.742,5.532-5.049c-1.015,2.23-1.529,4.449-1.529,6.611c0,4.053,1.584,7.703,4.543,10.541
		c2.948,2.852,6.685,4.301,11.104,4.301c4.659,0,8.794-1.754,11.948-5.074c3.13-3.291,4.724-7.649,4.724-12.956
		C436.614,179.382,434.266,174.239,429.829,170.479z"/>
</g>
</svg>
