<?xml version="1.0" encoding="utf-8"?>
<!-- Generator: Adobe Illustrator 22.0.1, SVG Export Plug-In . SVG Version: 6.00 Build 0)  -->
<svg version="1.1" id="圖層_1" xmlns="http://www.w3.org/2000/svg" xmlns:xlink="http://www.w3.org/1999/xlink" x="0px" y="0px"
	 viewBox="0 0 24 24" style="enable-background:new 0 0 24 24;" xml:space="preserve">
<style type="text/css">
	.st0{fill:#FFFFFF;}
</style>
<g>
	<path class="st0" d="M24,3c0-0.6-0.4-1-1-1H1C0.4,2,0,2.4,0,3v2c0,0.6,0.4,1,1,1h22c0.6,0,1-0.4,1-1V3z"/>
	<path class="st0" d="M24,11c0-0.6-0.4-1-1-1H1c-0.6,0-1,0.4-1,1v2c0,0.6,0.4,1,1,1h22c0.6,0,1-0.4,1-1V11z"/>
	<path class="st0" d="M24,19c0-0.6-0.4-1-1-1H1c-0.6,0-1,0.4-1,1v2c0,0.6,0.4,1,1,1h22c0.6,0,1-0.4,1-1V19z"/>
</g>
</svg>
