<?xml version="1.0" encoding="utf-8"?>
<!-- Generator: Adobe Illustrator 15.1.0, SVG Export Plug-In . SVG Version: 6.00 Build 0)  -->
<!DOCTYPE svg PUBLIC "-//W3C//DTD SVG 1.1//EN" "http://www.w3.org/Graphics/SVG/1.1/DTD/svg11.dtd">
<svg version="1.1" id="圖層_1" xmlns="http://www.w3.org/2000/svg" xmlns:xlink="http://www.w3.org/1999/xlink" x="0px" y="0px"
	 width="1920px" height="719px" viewBox="0 0 1920 719" enable-background="new 0 0 1920 719" xml:space="preserve">
<g id="XMLID_1_">
	<g>
		<rect y="715.86" fill="#B1E3E7" width="1920" height="3.14"/>
		<path fill="#B1E3E7" d="M1920,599.71v116.15H0V0h1920v299.5c-158.73-36.52-233.94-51.71-310.3-71.88
			c-38.25-10.11-26.16-46.86-106.101-54.86c-57.739-5.77-214.3,49.34-227.6,60.74c-14.19,12.16-27.74,46.49-41.62,58.35
			c-67.32,57.57-258.88,35.03-338.88,67.65l-0.77-1.98c43.87-17.17,95.41-36.14,135.45-47.35c7.69-2.16-5.55-25.74-12.68-29.34
			c-11.15-5.62-48.67,11.34-48.67,11.34l-12.49-19.9l-0.23-0.71c4.34-1.41,8.581-2.76,12.72-4.06c7.06-2.21-4.66-30.53-11.33-27.33
			c-20.48,9.82-60.41,12.87-76,27.33l-17.88-27.15c4.6-2.36-4.65-16.49-9.12-19.35c-6.17-3.95-28.91-0.18-29.96-0.01
			c0.1-0.05,0.19-0.11,0.29-0.16c4.96-2.73-0.5-19.06-5.33-22c-13.68-8.31-60.54,13.71-64.99,15.84
			c5.39-2.98-13.49-21.79-18.14-20.97c-60.7,10.71-245.78,85.53-270.55,126.36c-2.21-0.21-4.26-0.32-6.13-0.31
			c-17.03,0.05-66.29,7.92-79.87,18.18c-15.2,11.49-48.27,54.66-32.32,61.57c157.91,68.46,390.31,134.15,522.04,188.01
			c20.08,8.21,63.82,9.17,84.8,18.311c33.08,14.41,94.68,65.92,130.641,67.85c35.569,1.9,103.34-44.95,138.579-50.11
			c121.25-17.739,268.49-87.029,319.74-82.699C1636.67,548.75,1821.59,584.11,1920,599.71z"/>
		<path fill="#FBD2B6" d="M838.08,403.36c18.06-19.721,41.44-37.351,57.42-43.86c80-32.62,271.56-10.08,338.88-67.65
			c13.88-11.86,27.43-46.19,41.62-58.35c13.3-11.4,169.86-66.51,227.6-60.74c79.94,8,67.851,44.75,106.101,54.86
			c76.359,20.17,151.569,35.36,310.3,71.88v300.21c-98.41-15.6-283.33-50.96-376.7-58.85c-51.25-4.33-198.49,64.96-319.74,82.699
			c-35.239,5.16-103.01,52.011-138.579,50.11c-35.961-1.93-97.561-53.439-130.641-67.85c-20.98-9.141-64.72-10.101-84.8-18.311
			C737.81,533.65,505.41,467.96,347.5,399.5c-15.95-6.91,17.12-50.08,32.32-61.57c13.58-10.26,62.84-18.13,79.87-18.18
			c1.87-0.01,3.92,0.1,6.13,0.31c8.35,0.79,18.94,3.02,30.46,6.05c15.23,4,32.07,9.4,47.48,14.72c1.12,1.87,2.43,2.57,3.93,1.36
			c12.02,4.19,22.98,8.25,31.37,11.43c1.28,2.28,2.57,3.48,3.75,2.74c0.44-0.27,0.88-0.55,1.32-0.81c7.1,2.73,11.37,4.45,11.37,4.45
			h41.33h18.67l38.29,9.09l60.38,14.351h0.01L803,395.03L838.08,403.36z"/>
		<rect y="-3.14" fill="#B1E3E7" width="1920" height="3.14"/>
		<path fill="#DFAC4D" d="M1017.5,280.83c7.13,3.6,20.37,27.18,12.68,29.34c-40.04,11.21-91.58,30.18-135.45,47.35
			C843.66,377.5,803,395.03,803,395.03l-48.82-11.59l214.65-91.271C968.83,292.17,1006.35,275.21,1017.5,280.83z"/>
		<path fill="#DFAC4D" d="M957.5,240.17c6.67-3.2,18.39,25.12,11.33,27.33c-4.14,1.3-8.38,2.65-12.72,4.06
			c-104.59,33.9-262.32,97.53-262.32,97.53L655.5,360h-18.67l244.67-92.5C897.09,253.04,937.02,249.99,957.5,240.17z"/>
		<path fill="#DFAC4D" d="M956.34,272.27l12.49,19.9L754.18,383.44h-0.01l-60.38-14.351c0,0,157.73-63.63,262.32-97.53
			L956.34,272.27z"/>
		<path fill="#B1E3E7" d="M894.73,357.52l0.77,1.98c-15.98,6.51-39.36,24.14-57.42,43.86L803,395.03
			C803,395.03,843.66,377.5,894.73,357.52z"/>
		<path fill="#DFAC4D" d="M863.62,240.35l17.88,27.15L636.83,360H595.5c0,0-4.27-1.72-11.37-4.45
			c81.95-50.54,189.53-74.94,279.37-115.13C863.54,240.4,863.58,240.38,863.62,240.35z"/>
		<path fill="#DFAC4D" d="M863.62,240.35c-0.04,0.03-0.08,0.05-0.12,0.07c-89.84,40.19-197.42,64.59-279.37,115.13
			c-1.56-0.59-3.25-1.24-5.07-1.93c-4.29-7.65-8.51-27.51-8.51-27.51c74.08-46.02,190.27-70.02,253.98-105.12h0.01
			c1.05-0.17,23.79-3.94,29.96,0.01C858.97,223.86,868.22,237.99,863.62,240.35z"/>
		<path fill="#DFAC4D" d="M824.53,220.99c-63.71,35.1-179.9,59.1-253.98,105.12c-8.18,5.07-15.84,10.42-22.86,16.08
			c-1.3-0.45-2.61-0.91-3.93-1.36c-4.29-7.08-5.99-30.89-5.99-30.89l-0.72-1.63c73.46-32.48,159.85-72.24,217.12-93.48
			c0,0,0.12-0.06,0.34-0.16c4.45-2.13,51.31-24.15,64.99-15.84c4.83,2.94,10.29,19.27,5.33,22c-0.1,0.05-0.19,0.11-0.29,0.16H824.53
			z"/>
		<path fill="#DFAC4D" d="M736.37,193.7c4.65-0.82,23.53,17.99,18.14,20.97c-0.22,0.1-0.34,0.16-0.34,0.16
			c-57.27,21.24-143.66,61-217.12,93.48c-14.17,6.27-27.86,12.26-40.77,17.8c-11.52-3.03-22.11-5.26-30.46-6.05
			C490.59,279.23,675.67,204.41,736.37,193.7z"/>
		<path fill="#B1E3E7" d="M584.13,355.55c-0.44,0.26-0.88,0.54-1.32,0.81c-1.18,0.74-2.47-0.46-3.75-2.74
			C580.88,354.31,582.57,354.96,584.13,355.55z"/>
		<path fill="#B1E3E7" d="M570.55,326.11c0,0,4.22,19.86,8.51,27.51c-8.39-3.18-19.35-7.24-31.37-11.43
			C554.71,336.53,562.37,331.18,570.55,326.11z"/>
		<path fill="#B1E3E7" d="M547.69,342.19c-1.5,1.21-2.81,0.51-3.93-1.36C545.08,341.28,546.39,341.74,547.69,342.19z"/>
		<path fill="#B1E3E7" d="M543.76,340.83c-15.41-5.32-32.25-10.72-47.48-14.72c12.91-5.54,26.6-11.53,40.77-17.8l0.72,1.63
			C537.77,309.94,539.47,333.75,543.76,340.83z"/>
	</g>
	<g>
		<polyline fill="none" stroke="#000000" stroke-miterlimit="10" points="0,0 0,-3.14 1920,-3.14 1920,0 		"/>
		<line fill="none" stroke="#000000" stroke-miterlimit="10" x1="1920" y1="715.86" x2="0" y2="715.86"/>
		<polygon fill="none" stroke="#000000" stroke-miterlimit="10" points="1920,715.86 1920,719 0,719 0,715.86 0,0 1920,0 
			1920,299.5 1920,599.71 		"/>
		<path fill="none" stroke="#000000" stroke-miterlimit="10" d="M1920,299.5c-158.73-36.52-233.94-51.71-310.3-71.88
			c-38.25-10.11-26.16-46.86-106.101-54.86c-57.739-5.77-214.3,49.34-227.6,60.74c-14.19,12.16-27.74,46.49-41.62,58.35
			c-67.32,57.57-258.88,35.03-338.88,67.65c-15.98,6.51-39.36,24.14-57.42,43.86c-14.62,15.979-25.76,33.34-26.65,47.279
			c-0.92,14.471,13.72,35.08,24.07,40.86c21.29,11.9,71.11,19.78,95.5,20c44.18,0.4,132.22,2.11,176-3.84
			c81.63-11.08,323.7-38.97,326-60.16"/>
		<polyline fill="none" stroke="#000000" stroke-miterlimit="10" points="754.18,383.44 803,395.03 838.08,403.36 845.3,405.08 		
			"/>
		<path fill="none" stroke="#000000" stroke-miterlimit="10" d="M1920.25,599.75c-0.08-0.01-0.17-0.03-0.25-0.04
			c-98.41-15.6-283.33-50.96-376.7-58.85c-51.25-4.33-198.49,64.96-319.74,82.699c-35.239,5.16-103.01,52.011-138.579,50.11
			c-35.961-1.93-97.561-53.439-130.641-67.85c-20.98-9.141-64.72-10.101-84.8-18.311C737.81,533.65,505.41,467.96,347.5,399.5
			c-15.95-6.91,17.12-50.08,32.32-61.57c13.58-10.26,62.84-18.13,79.87-18.18c1.87-0.01,3.92,0.1,6.13,0.31
			c8.35,0.79,18.94,3.02,30.46,6.05c15.23,4,32.07,9.4,47.48,14.72c1.32,0.45,2.63,0.91,3.93,1.36
			c12.02,4.19,22.98,8.25,31.37,11.43c1.82,0.69,3.51,1.34,5.07,1.93c7.1,2.73,11.37,4.45,11.37,4.45h41.33h18.67l38.29,9.09
			l60.38,14.351"/>
		<path fill="none" stroke="#000000" stroke-miterlimit="10" d="M754.17,214.83c-57.27,21.24-143.66,61-217.12,93.48
			c-14.17,6.27-27.86,12.26-40.77,17.8"/>
		<path fill="none" stroke="#000000" stroke-miterlimit="10" d="M465.08,321.35c0.23-0.43,0.47-0.86,0.74-1.29
			c24.77-40.83,209.85-115.65,270.55-126.36c4.65-0.82,23.53,17.99,18.14,20.97"/>
		<path fill="none" stroke="#000000" stroke-miterlimit="10" d="M824.53,220.99c-63.71,35.1-179.9,59.1-253.98,105.12
			c-8.18,5.07-15.84,10.42-22.86,16.08c-1.5,1.21-2.81,0.51-3.93-1.36c-4.29-7.08-5.99-30.89-5.99-30.89"/>
		<path fill="none" stroke="#000000" stroke-miterlimit="10" d="M754.17,214.83c0,0,0.12-0.06,0.34-0.16
			c4.45-2.13,51.31-24.15,64.99-15.84c4.83,2.94,10.29,19.27,5.33,22c-0.1,0.05-0.19,0.11-0.29,0.16"/>
		<path fill="none" stroke="#000000" stroke-miterlimit="10" d="M824.5,221c0,0,0.01,0,0.03-0.01h0.01
			c1.05-0.17,23.79-3.94,29.96,0.01c4.47,2.86,13.72,16.99,9.12,19.35c-0.04,0.03-0.08,0.05-0.12,0.07
			c-89.84,40.19-197.42,64.59-279.37,115.13c-0.44,0.26-0.88,0.54-1.32,0.81c-1.18,0.74-2.47-0.46-3.75-2.74
			c-4.29-7.65-8.51-27.51-8.51-27.51"/>
		<polyline fill="none" stroke="#000000" stroke-miterlimit="10" points="863.5,240.17 863.62,240.35 881.5,267.5 636.83,360 		"/>
		<path fill="none" stroke="#000000" stroke-miterlimit="10" d="M881.5,267.5c15.59-14.46,55.52-17.51,76-27.33
			c6.67-3.2,18.39,25.12,11.33,27.33c-4.14,1.3-8.38,2.65-12.72,4.06c-104.59,33.9-262.32,97.53-262.32,97.53"/>
		<polyline fill="none" stroke="#000000" stroke-miterlimit="10" points="956.34,272.27 968.83,292.17 754.18,383.44 754.17,383.44 
					"/>
		<path fill="none" stroke="#000000" stroke-miterlimit="10" d="M968.83,292.17c0,0,37.52-16.96,48.67-11.34
			c7.13,3.6,20.37,27.18,12.68,29.34c-40.04,11.21-91.58,30.18-135.45,47.35C843.66,377.5,803,395.03,803,395.03"/>
	</g>
</g>
</svg>
